<svg width="1120" height="1120" viewBox="0 0 1120 1120" fill="none" xmlns="http://www.w3.org/2000/svg">
<rect width="1120" height="1120" fill="#CCCDCE"/>
<rect x="525" y="385" width="35" height="35" fill="#381F31"/>
<rect x="560" y="385" width="35" height="35" fill="#381F31"/>
<rect x="595" y="385" width="35" height="35" fill="#381F31"/>
<rect x="630" y="385" width="35" height="35" fill="#381F31"/>
<rect x="665" y="385" width="35" height="35" fill="#381F31"/>
<rect x="490" y="420" width="35" height="35" fill="#381F31"/>
<rect x="525" y="420" width="35" height="35" fill="#6B362D"/>
<rect x="560" y="420" width="35" height="35" fill="#854A41"/>
<rect x="595" y="420" width="35" height="35" fill="#854A41"/>
<rect x="630" y="420" width="35" height="35" fill="#854A41"/>
<rect x="665" y="420" width="35" height="35" fill="#854A41"/>
<rect x="700" y="420" width="35" height="35" fill="#381F31"/>
<rect x="455" y="455" width="35" height="35" fill="#381F31"/>
<rect x="490" y="455" width="35" height="35" fill="#6B362D"/>
<rect x="525" y="455" width="35" height="35" fill="#854A41"/>
<rect x="560" y="455" width="35" height="35" fill="#854A41"/>
<rect x="595" y="455" width="35" height="35" fill="#854A41"/>
<rect x="630" y="455" width="35" height="35" fill="#854A41"/>
<rect x="665" y="455" width="35" height="35" fill="#854A41"/>
<rect x="700" y="455" width="35" height="35" fill="#854A41"/>
<rect x="735" y="455" width="35" height="35" fill="#381F31"/>
<rect x="420" y="490" width="35" height="35" fill="#381F31"/>
<rect x="455" y="490" width="35" height="35" fill="#6B362D"/>
<rect x="490" y="490" width="35" height="35" fill="#6B362D"/>
<rect x="525" y="490" width="35" height="35" fill="#6B362D"/>
<rect x="560" y="490" width="35" height="35" fill="#854A41"/>
<rect x="595" y="490" width="35" height="35" fill="#854A41"/>
<rect x="630" y="490" width="35" height="35" fill="#854A41"/>
<rect x="665" y="490" width="35" height="35" fill="#854A41"/>
<rect x="700" y="490" width="35" height="35" fill="#854A41"/>
<rect x="735" y="490" width="35" height="35" fill="#854A41"/>
<rect x="770" y="490" width="35" height="35" fill="#381F31"/>
<rect x="420" y="525" width="35" height="35" fill="#381F31"/>
<rect x="455" y="525" width="35" height="35" fill="#6B362D"/>
<rect x="490" y="525" width="35" height="35" fill="#6B362D"/>
<rect x="525" y="525" width="35" height="35" fill="#6B362D"/>
<rect x="560" y="525" width="35" height="35" fill="#6B362D"/>
<rect x="595" y="525" width="35" height="35" fill="#854A41"/>
<rect x="630" y="525" width="35" height="35" fill="#854A41"/>
<rect x="665" y="525" width="35" height="35" fill="#854A41"/>
<rect x="700" y="525" width="35" height="35" fill="#854A41"/>
<rect x="735" y="525" width="35" height="35" fill="#6B362D"/>
<rect x="770" y="525" width="35" height="35" fill="#381F31"/>
<rect x="385" y="560" width="35" height="35" fill="#381F31"/>
<rect x="420" y="560" width="35" height="35" fill="#6B362D"/>
<rect x="455" y="560" width="35" height="35" fill="#6B362D"/>
<rect x="490" y="560" width="35" height="35" fill="#6B362D"/>
<rect x="525" y="560" width="35" height="35" fill="#6B362D"/>
<rect x="560" y="560" width="35" height="35" fill="#6B362D"/>
<rect x="595" y="560" width="35" height="35" fill="#6B362D"/>
<rect x="630" y="560" width="35" height="35" fill="#6B362D"/>
<rect x="665" y="560" width="35" height="35" fill="#6B362D"/>
<rect x="700" y="560" width="35" height="35" fill="#6B362D"/>
<rect x="735" y="560" width="35" height="35" fill="#6B362D"/>
<rect x="770" y="560" width="35" height="35" fill="#381F31"/>
<rect x="385" y="595" width="35" height="35" fill="#381F31"/>
<rect x="420" y="595" width="35" height="35" fill="#EEC39A"/>
<rect x="455" y="595" width="35" height="35" fill="#6B362D"/>
<rect x="490" y="595" width="35" height="35" fill="#6B362D"/>
<rect x="525" y="595" width="35" height="35" fill="#6B362D"/>
<rect x="560" y="595" width="35" height="35" fill="#D9A066"/>
<rect x="595" y="595" width="35" height="35" fill="#D9A066"/>
<rect x="630" y="595" width="35" height="35" fill="#854A41"/>
<rect x="665" y="595" width="35" height="35" fill="#854A41"/>
<rect x="700" y="595" width="35" height="35" fill="#D9A066"/>
<rect x="735" y="595" width="35" height="35" fill="#854A41"/>
<rect x="770" y="595" width="35" height="35" fill="#381F31"/>
<rect x="385" y="630" width="35" height="35" fill="#381F31"/>
<rect x="420" y="630" width="35" height="35" fill="#EEC39A"/>
<rect x="455" y="630" width="35" height="35" fill="#6B362D"/>
<rect x="490" y="630" width="35" height="35" fill="#6B362D"/>
<rect x="525" y="630" width="35" height="35" fill="#6B362D"/>
<rect x="560" y="630" width="35" height="35" fill="#D9A066"/>
<rect x="595" y="630" width="35" height="35" fill="black"/>
<rect x="630" y="630" width="35" height="35" fill="#EEC39A"/>
<rect x="665" y="630" width="35" height="35" fill="#EEC39A"/>
<rect x="700" y="630" width="35" height="35" fill="black"/>
<rect x="735" y="630" width="35" height="35" fill="#D9A066"/>
<rect x="770" y="630" width="35" height="35" fill="#381F31"/>
<rect x="385" y="665" width="35" height="35" fill="#381F31"/>
<rect x="420" y="665" width="35" height="35" fill="#D9A066"/>
<rect x="455" y="665" width="35" height="35" fill="#6B362D"/>
<rect x="490" y="665" width="35" height="35" fill="#6B362D"/>
<rect x="525" y="665" width="35" height="35" fill="#D9A066"/>
<rect x="560" y="665" width="35" height="35" fill="#EEC39A"/>
<rect x="595" y="665" width="35" height="35" fill="black"/>
<rect x="630" y="665" width="35" height="35" fill="#EEC39A"/>
<rect x="665" y="665" width="35" height="35" fill="#EEC39A"/>
<rect x="700" y="665" width="35" height="35" fill="black"/>
<rect x="735" y="665" width="35" height="35" fill="#D9A066"/>
<rect x="770" y="665" width="35" height="35" fill="#381F31"/>
<rect x="420" y="700" width="35" height="35" fill="#381F31"/>
<rect x="455" y="700" width="35" height="35" fill="#6B362D"/>
<rect x="490" y="700" width="35" height="35" fill="#6B362D"/>
<rect x="525" y="700" width="35" height="35" fill="#D9A066"/>
<rect x="560" y="700" width="35" height="35" fill="#EEC39A"/>
<rect x="595" y="700" width="35" height="35" fill="#EEC39A"/>
<rect x="630" y="700" width="35" height="35" fill="#EEC39A"/>
<rect x="665" y="700" width="35" height="35" fill="#EEC39A"/>
<rect x="700" y="700" width="35" height="35" fill="#EEC39A"/>
<rect x="735" y="700" width="35" height="35" fill="#D9A066"/>
<rect x="770" y="700" width="35" height="35" fill="#381F31"/>
<rect x="455" y="735" width="35" height="35" fill="#381F31"/>
<rect x="490" y="735" width="35" height="35" fill="#6B362D"/>
<rect x="525" y="735" width="35" height="35" fill="#D9A066"/>
<rect x="560" y="735" width="35" height="35" fill="#EEC39A"/>
<rect x="595" y="735" width="35" height="35" fill="#EEC39A"/>
<rect x="630" y="735" width="35" height="35" fill="#D6917C"/>
<rect x="665" y="735" width="35" height="35" fill="#D6917C"/>
<rect x="700" y="735" width="35" height="35" fill="#EEC39A"/>
<rect x="735" y="735" width="35" height="35" fill="#EEC39A"/>
<rect x="770" y="735" width="35" height="35" fill="#381F31"/>
<rect x="455" y="770" width="35" height="35" fill="#381F31"/>
<rect x="490" y="770" width="35" height="35" fill="#6B362D"/>
<rect x="525" y="770" width="35" height="35" fill="#6B362D"/>
<rect x="560" y="770" width="35" height="35" fill="#EEC39A"/>
<rect x="595" y="770" width="35" height="35" fill="#EEC39A"/>
<rect x="630" y="770" width="35" height="35" fill="#EEC39A"/>
<rect x="665" y="770" width="35" height="35" fill="#EEC39A"/>
<rect x="700" y="770" width="35" height="35" fill="#EEC39A"/>
<rect x="735" y="770" width="35" height="35" fill="#EEC39A"/>
<rect x="770" y="770" width="35" height="35" fill="#381F31"/>
<rect x="455" y="805" width="35" height="35" fill="#381F31"/>
<rect x="490" y="805" width="35" height="35" fill="#6B362D"/>
<rect x="525" y="805" width="35" height="35" fill="#6B362D"/>
<rect x="560" y="805" width="35" height="35" fill="#6B362D"/>
<rect x="595" y="805" width="35" height="35" fill="#EEC39A"/>
<rect x="630" y="805" width="35" height="35" fill="#EEC39A"/>
<rect x="665" y="805" width="35" height="35" fill="#EEC39A"/>
<rect x="700" y="805" width="35" height="35" fill="#EEC39A"/>
<rect x="735" y="805" width="35" height="35" fill="#854A41"/>
<rect x="770" y="805" width="35" height="35" fill="#381F31"/>
<rect x="455" y="840" width="35" height="35" fill="#381F31"/>
<rect x="490" y="840" width="35" height="35" fill="#6B362D"/>
<rect x="525" y="840" width="35" height="35" fill="#6B362D"/>
<rect x="560" y="840" width="35" height="35" fill="#EEC39A"/>
<rect x="595" y="840" width="35" height="35" fill="#EEC39A"/>
<rect x="630" y="840" width="35" height="35" fill="#D6917C"/>
<rect x="665" y="840" width="35" height="35" fill="#D6917C"/>
<rect x="700" y="840" width="35" height="35" fill="#EEC39A"/>
<rect x="735" y="840" width="35" height="35" fill="#854A41"/>
<rect x="770" y="840" width="35" height="35" fill="#381F31"/>
<rect x="455" y="875" width="35" height="35" fill="#381F31"/>
<rect x="490" y="875" width="35" height="35" fill="#6B362D"/>
<rect x="525" y="875" width="35" height="35" fill="#381F31"/>
<rect x="560" y="875" width="35" height="35" fill="#6B362D"/>
<rect x="595" y="875" width="35" height="35" fill="#EEC39A"/>
<rect x="630" y="875" width="35" height="35" fill="#EEC39A"/>
<rect x="665" y="875" width="35" height="35" fill="#EEC39A"/>
<rect x="700" y="875" width="35" height="35" fill="#EEC39A"/>
<rect x="735" y="875" width="35" height="35" fill="#381F31"/>
<rect x="455" y="910" width="35" height="35" fill="#381F31"/>
<rect x="490" y="910" width="35" height="35" fill="#6B362D"/>
<rect x="525" y="910" width="35" height="35" fill="#D9A066"/>
<rect x="560" y="910" width="35" height="35" fill="#381F31"/>
<rect x="595" y="910" width="35" height="35" fill="#6B362D"/>
<rect x="630" y="910" width="35" height="35" fill="#6B362D"/>
<rect x="665" y="910" width="35" height="35" fill="#854A41"/>
<rect x="700" y="910" width="35" height="35" fill="#381F31"/>
<rect x="455" y="945" width="35" height="35" fill="#381F31"/>
<rect x="490" y="945" width="35" height="35" fill="#6B362D"/>
<rect x="525" y="945" width="35" height="35" fill="#D9A066"/>
<rect x="560" y="945" width="35" height="35" fill="#381F31"/>
<rect x="595" y="945" width="35" height="35" fill="#381F31"/>
<rect x="630" y="945" width="35" height="35" fill="#381F31"/>
<rect x="665" y="945" width="35" height="35" fill="#381F31"/>
<rect x="455" y="980" width="35" height="35" fill="#381F31"/>
<rect x="490" y="980" width="35" height="35" fill="#6B362D"/>
<rect x="525" y="980" width="35" height="35" fill="#D9A066"/>
<rect x="560" y="980" width="35" height="35" fill="#381F31"/>
<rect x="420" y="1015" width="35" height="35" fill="#381F31"/>
<rect x="455" y="1015" width="35" height="35" fill="#6B362D"/>
<rect x="490" y="1015" width="35" height="35" fill="#6B362D"/>
<rect x="525" y="1015" width="35" height="35" fill="#6B362D"/>
<rect x="560" y="1015" width="35" height="35" fill="#6B362D"/>
<rect x="595" y="1015" width="35" height="35" fill="#381F31"/>
<rect x="385" y="1050" width="35" height="35" fill="#381F31"/>
<rect x="420" y="1050" width="35" height="35" fill="#6B362D"/>
<rect x="455" y="1050" width="35" height="35" fill="#6B362D"/>
<rect x="490" y="1050" width="35" height="35" fill="#6B362D"/>
<rect x="525" y="1050" width="35" height="35" fill="#6B362D"/>
<rect x="560" y="1050" width="35" height="35" fill="#6B362D"/>
<rect x="595" y="1050" width="35" height="35" fill="#854A41"/>
<rect x="630" y="1050" width="35" height="35" fill="#381F31"/>
<rect x="350" y="1085" width="35" height="35" fill="#381F31"/>
<rect x="385" y="1085" width="35" height="35" fill="#6B362D"/>
<rect x="420" y="1085" width="35" height="35" fill="#6B362D"/>
<rect x="455" y="1085" width="35" height="35" fill="#6B362D"/>
<rect x="490" y="1085" width="35" height="35" fill="#6B362D"/>
<rect x="525" y="1085" width="35" height="35" fill="#6B362D"/>
<rect x="560" y="1085" width="35" height="35" fill="#6B362D"/>
<rect x="595" y="1085" width="35" height="35" fill="#6B362D"/>
<rect x="630" y="1085" width="35" height="35" fill="#854A41"/>
<rect x="665" y="1085" width="35" height="35" fill="#381F31"/>
<rect x="420" y="280" width="35" height="35" fill="#381F31"/>
<rect x="455" y="280" width="35" height="35" fill="#381F31"/>
<rect x="490" y="280" width="35" height="35" fill="#381F31"/>
<rect x="525" y="280" width="35" height="35" fill="#381F31"/>
<rect x="560" y="280" width="35" height="35" fill="#381F31"/>
<rect x="595" y="280" width="35" height="35" fill="#381F31"/>
<rect x="630" y="280" width="35" height="35" fill="#381F31"/>
<rect x="385" y="315" width="35" height="35" fill="#381F31"/>
<rect x="420" y="315" width="35" height="35" fill="#5E4669"/>
<rect x="455" y="315" width="35" height="35" fill="#705D78"/>
<rect x="490" y="315" width="35" height="35" fill="#705D78"/>
<rect x="525" y="315" width="35" height="35" fill="#705D78"/>
<rect x="560" y="315" width="35" height="35" fill="#705D78"/>
<rect x="595" y="315" width="35" height="35" fill="#705D78"/>
<rect x="630" y="315" width="35" height="35" fill="#705D78"/>
<rect x="665" y="315" width="35" height="35" fill="#381F31"/>
<rect x="700" y="315" width="35" height="35" fill="#381F31"/>
<rect x="350" y="350" width="35" height="35" fill="#381F31"/>
<rect x="385" y="350" width="35" height="35" fill="#5E4669"/>
<rect x="420" y="350" width="35" height="35" fill="#705D78"/>
<rect x="455" y="350" width="35" height="35" fill="#705D78"/>
<rect x="490" y="350" width="35" height="35" fill="#5E4669"/>
<rect x="525" y="350" width="35" height="35" fill="#705D78"/>
<rect x="560" y="350" width="35" height="35" fill="#705D78"/>
<rect x="595" y="350" width="35" height="35" fill="#705D78"/>
<rect x="630" y="350" width="35" height="35" fill="#705D78"/>
<rect x="665" y="350" width="35" height="35" fill="#705D78"/>
<rect x="700" y="350" width="35" height="35" fill="#705D78"/>
<rect x="735" y="350" width="35" height="35" fill="#381F31"/>
<rect x="315" y="385" width="35" height="35" fill="#381F31"/>
<rect x="350" y="385" width="35" height="35" fill="#5E4669"/>
<rect x="385" y="385" width="35" height="35" fill="#5E4669"/>
<rect x="420" y="385" width="35" height="35" fill="#5E4669"/>
<rect x="455" y="385" width="35" height="35" fill="#5E4669"/>
<rect x="490" y="385" width="35" height="35" fill="#705D78"/>
<rect x="525" y="385" width="35" height="35" fill="#705D78"/>
<rect x="560" y="385" width="35" height="35" fill="#705D78"/>
<rect x="595" y="385" width="35" height="35" fill="#705D78"/>
<rect x="630" y="385" width="35" height="35" fill="#705D78"/>
<rect x="665" y="385" width="35" height="35" fill="#705D78"/>
<rect x="700" y="385" width="35" height="35" fill="#705D78"/>
<rect x="735" y="385" width="35" height="35" fill="#705D78"/>
<rect x="770" y="385" width="35" height="35" fill="#381F31"/>
<rect x="315" y="420" width="35" height="35" fill="#381F31"/>
<rect x="350" y="420" width="35" height="35" fill="#5E4669"/>
<rect x="385" y="420" width="35" height="35" fill="#5E4669"/>
<rect x="420" y="420" width="35" height="35" fill="#5E4669"/>
<rect x="455" y="420" width="35" height="35" fill="#705D78"/>
<rect x="490" y="420" width="35" height="35" fill="#5E4669"/>
<rect x="525" y="420" width="35" height="35" fill="#5E4669"/>
<rect x="560" y="420" width="35" height="35" fill="#705D78"/>
<rect x="595" y="420" width="35" height="35" fill="#705D78"/>
<rect x="630" y="420" width="35" height="35" fill="#705D78"/>
<rect x="665" y="420" width="35" height="35" fill="#705D78"/>
<rect x="700" y="420" width="35" height="35" fill="#705D78"/>
<rect x="735" y="420" width="35" height="35" fill="#705D78"/>
<rect x="770" y="420" width="35" height="35" fill="#381F31"/>
<rect x="315" y="455" width="35" height="35" fill="#381F31"/>
<rect x="350" y="455" width="35" height="35" fill="#5E4669"/>
<rect x="385" y="455" width="35" height="35" fill="#5E4669"/>
<rect x="420" y="455" width="35" height="35" fill="#705D78"/>
<rect x="455" y="455" width="35" height="35" fill="#5E4669"/>
<rect x="490" y="455" width="35" height="35" fill="#5E4669"/>
<rect x="525" y="455" width="35" height="35" fill="#5E4669"/>
<rect x="560" y="455" width="35" height="35" fill="#462A52"/>
<rect x="595" y="455" width="35" height="35" fill="#462A52"/>
<rect x="630" y="455" width="35" height="35" fill="#462A52"/>
<rect x="665" y="455" width="35" height="35" fill="#462A52"/>
<rect x="700" y="455" width="35" height="35" fill="#462A52"/>
<rect x="735" y="455" width="35" height="35" fill="#462A52"/>
<rect x="770" y="455" width="35" height="35" fill="#5E4669"/>
<rect x="805" y="455" width="35" height="35" fill="#381F31"/>
<rect x="315" y="490" width="35" height="35" fill="#381F31"/>
<rect x="350" y="490" width="35" height="35" fill="#5E4669"/>
<rect x="385" y="490" width="35" height="35" fill="#5E4669"/>
<rect x="420" y="490" width="35" height="35" fill="#5E4669"/>
<rect x="455" y="490" width="35" height="35" fill="#5E4669"/>
<rect x="490" y="490" width="35" height="35" fill="#462A52"/>
<rect x="525" y="490" width="35" height="35" fill="#462A52"/>
<rect x="560" y="490" width="35" height="35" fill="#705D78"/>
<rect x="595" y="490" width="35" height="35" fill="#462A52"/>
<rect x="630" y="490" width="35" height="35" fill="#91999E"/>
<rect x="665" y="490" width="35" height="35" fill="#B2BCC2"/>
<rect x="700" y="490" width="35" height="35" fill="#DEDEDE"/>
<rect x="735" y="490" width="35" height="35" fill="#462A52"/>
<rect x="770" y="490" width="35" height="35" fill="#462A52"/>
<rect x="805" y="490" width="35" height="35" fill="#381F31"/>
<rect x="350" y="525" width="35" height="35" fill="#381F31"/>
<rect x="385" y="525" width="35" height="35" fill="#5E4669"/>
<rect x="420" y="525" width="35" height="35" fill="#462A52"/>
<rect x="455" y="525" width="35" height="35" fill="#462A52"/>
<rect x="490" y="525" width="35" height="35" fill="#5E4669"/>
<rect x="525" y="525" width="35" height="35" fill="#462A52"/>
<rect x="560" y="525" width="35" height="35" fill="#705D78"/>
<rect x="595" y="525" width="35" height="35" fill="#462A52"/>
<rect x="630" y="525" width="35" height="35" fill="#705D78"/>
<rect x="665" y="525" width="35" height="35" fill="#462A52"/>
<rect x="700" y="525" width="35" height="35" fill="#705D78"/>
<rect x="735" y="525" width="35" height="35" fill="#462A52"/>
<rect x="770" y="525" width="35" height="35" fill="#5E4669"/>
<rect x="805" y="525" width="35" height="35" fill="#381F31"/>
<rect x="350" y="560" width="35" height="35" fill="#381F31"/>
<rect x="385" y="560" width="35" height="35" fill="#462A52"/>
<rect x="420" y="560" width="35" height="35" fill="#5E4669"/>
<rect x="455" y="560" width="35" height="35" fill="#462A52"/>
<rect x="490" y="560" width="35" height="35" fill="#5E4669"/>
<rect x="770" y="560" width="35" height="35" fill="#5E4669"/>
<rect x="805" y="560" width="35" height="35" fill="#381F31"/>
<rect x="350" y="595" width="35" height="35" fill="#381F31"/>
<rect x="385" y="595" width="35" height="35" fill="#462A52"/>
<rect x="805" y="490" width="35" height="35" fill="#381F31"/>
<rect x="385" y="525" width="35" height="35" fill="#381F31"/>
<rect x="420" y="525" width="35" height="35" fill="white"/>
<rect x="455" y="525" width="35" height="35" fill="#B2BCC2"/>
<rect x="490" y="525" width="35" height="35" fill="white"/>
<rect x="525" y="525" width="35" height="35" fill="white"/>
<rect x="560" y="525" width="35" height="35" fill="white"/>
<rect x="595" y="525" width="35" height="35" fill="white"/>
<rect x="630" y="525" width="35" height="35" fill="white"/>
<rect x="665" y="525" width="35" height="35" fill="white"/>
<rect x="700" y="525" width="35" height="35" fill="white"/>
<rect x="735" y="525" width="35" height="35" fill="white"/>
<rect x="770" y="525" width="35" height="35" fill="white"/>
<rect x="805" y="525" width="35" height="35" fill="white"/>
<rect x="840" y="525" width="35" height="35" fill="#381F31"/>
<rect x="420" y="560" width="35" height="35" fill="white"/>
<rect x="455" y="560" width="35" height="35" fill="#B2BCC2"/>
<rect x="490" y="560" width="35" height="35" fill="white"/>
<rect x="525" y="560" width="35" height="35" fill="#FB2626"/>
<rect x="560" y="560" width="35" height="35" fill="#FA6225"/>
<rect x="595" y="560" width="35" height="35" fill="#FAA125"/>
<rect x="630" y="560" width="35" height="35" fill="#FAA125"/>
<rect x="665" y="560" width="35" height="35" fill="#FAF325"/>
<rect x="700" y="560" width="35" height="35" fill="#FB2626"/>
<rect x="735" y="560" width="35" height="35" fill="#FA6225"/>
<rect x="770" y="560" width="35" height="35" fill="#FAF325"/>
<rect x="805" y="560" width="35" height="35" fill="white"/>
<rect x="840" y="560" width="35" height="35" fill="#381F31"/>
<rect x="490" y="595" width="35" height="35" fill="white"/>
<rect x="525" y="595" width="35" height="35" fill="#FB2626"/>
<rect x="560" y="595" width="35" height="35" fill="#FA6225"/>
<rect x="595" y="595" width="35" height="35" fill="#FAA125"/>
<rect x="630" y="595" width="35" height="35" fill="#FB2626"/>
<rect x="665" y="595" width="35" height="35" fill="#FAF325"/>
<rect x="700" y="595" width="35" height="35" fill="#FB2626"/>
<rect x="735" y="595" width="35" height="35" fill="#FA6225"/>
<rect x="770" y="595" width="35" height="35" fill="#FAF325"/>
<rect x="805" y="595" width="35" height="35" fill="white"/>
<rect x="840" y="595" width="35" height="35" fill="#381F31"/>
<rect x="490" y="630" width="35" height="35" fill="white"/>
<rect x="525" y="630" width="35" height="35" fill="#FB2626"/>
<rect x="560" y="630" width="35" height="35" fill="#FA6225"/>
<rect x="595" y="630" width="35" height="35" fill="#FA6225"/>
<rect x="630" y="630" width="35" height="35" fill="#FB2626"/>
<rect x="665" y="630" width="35" height="35" fill="#FA6225"/>
<rect x="700" y="630" width="35" height="35" fill="#FAF325"/>
<rect x="735" y="630" width="35" height="35" fill="#FB2626"/>
<rect x="770" y="630" width="35" height="35" fill="#FAA125"/>
<rect x="805" y="630" width="35" height="35" fill="white"/>
<rect x="840" y="630" width="35" height="35" fill="#381F31"/>
<rect x="490" y="665" width="35" height="35" fill="white"/>
<rect x="525" y="665" width="35" height="35" fill="#FB2626"/>
<rect x="560" y="665" width="35" height="35" fill="#FA6225"/>
<rect x="595" y="665" width="35" height="35" fill="#FB2626"/>
<rect x="630" y="665" width="35" height="35" fill="#FB2626"/>
<rect x="665" y="665" width="35" height="35" fill="#FA6225"/>
<rect x="700" y="665" width="35" height="35" fill="#FB2626"/>
<rect x="735" y="665" width="35" height="35" fill="#FAA125"/>
<rect x="770" y="665" width="35" height="35" fill="#FAA125"/>
<rect x="805" y="665" width="35" height="35" fill="white"/>
<rect x="840" y="665" width="35" height="35" fill="#381F31"/>
<rect x="490" y="700" width="35" height="35" fill="#B2BCC2"/>
<rect x="525" y="700" width="35" height="35" fill="white"/>
<rect x="560" y="700" width="35" height="35" fill="white"/>
<rect x="595" y="700" width="35" height="35" fill="white"/>
<rect x="630" y="700" width="35" height="35" fill="white"/>
<rect x="665" y="700" width="35" height="35" fill="white"/>
<rect x="700" y="700" width="35" height="35" fill="white"/>
<rect x="735" y="700" width="35" height="35" fill="white"/>
<rect x="770" y="700" width="35" height="35" fill="white"/>
<rect x="805" y="700" width="35" height="35" fill="#B2BCC2"/>
<rect x="840" y="700" width="35" height="35" fill="#381F31"/>
<rect x="805" y="735" width="35" height="35" fill="#381F31"/>
</svg>
