<svg width="1121" height="1120" viewBox="0 0 1121 1120" fill="none" xmlns="http://www.w3.org/2000/svg">
<rect width="1120" height="1120" transform="translate(1)" fill="#E4E4A8"/>
<rect x="526" y="385" width="35" height="35" fill="#381F31"/>
<rect x="561" y="385" width="35" height="35" fill="#381F31"/>
<rect x="596" y="385" width="35" height="35" fill="#381F31"/>
<rect x="631" y="385" width="35" height="35" fill="#381F31"/>
<rect x="666" y="385" width="35" height="35" fill="#381F31"/>
<rect x="491" y="420" width="35" height="35" fill="#381F31"/>
<rect x="526" y="420" width="35" height="35" fill="#707070"/>
<rect x="561" y="420" width="35" height="35" fill="#9C9C9C"/>
<rect x="596" y="420" width="35" height="35" fill="#9C9C9C"/>
<rect x="631" y="420" width="35" height="35" fill="#9C9C9C"/>
<rect x="666" y="420" width="35" height="35" fill="#9C9C9C"/>
<rect x="701" y="420" width="35" height="35" fill="#381F31"/>
<rect x="456" y="455" width="35" height="35" fill="#381F31"/>
<rect x="491" y="455" width="35" height="35" fill="#BB5656"/>
<rect x="526" y="455" width="35" height="35" fill="#BB5656"/>
<rect x="561" y="455" width="35" height="35" fill="#9C9C9C"/>
<rect x="596" y="455" width="35" height="35" fill="#9C9C9C"/>
<rect x="631" y="455" width="35" height="35" fill="#9C9C9C"/>
<rect x="666" y="455" width="35" height="35" fill="#9C9C9C"/>
<rect x="701" y="455" width="35" height="35" fill="#9C9C9C"/>
<rect x="736" y="455" width="35" height="35" fill="#381F31"/>
<rect x="421" y="490" width="35" height="35" fill="#381F31"/>
<rect x="456" y="490" width="35" height="35" fill="#707070"/>
<rect x="491" y="490" width="35" height="35" fill="#CF8C8C"/>
<rect x="526" y="490" width="35" height="35" fill="#CF8C8C"/>
<rect x="561" y="490" width="35" height="35" fill="#BB5656"/>
<rect x="596" y="490" width="35" height="35" fill="#9C9C9C"/>
<rect x="631" y="490" width="35" height="35" fill="#9C9C9C"/>
<rect x="666" y="490" width="35" height="35" fill="#9C9C9C"/>
<rect x="701" y="490" width="35" height="35" fill="#9C9C9C"/>
<rect x="736" y="490" width="35" height="35" fill="#9C9C9C"/>
<rect x="771" y="490" width="35" height="35" fill="#381F31"/>
<rect x="421" y="525" width="35" height="35" fill="#381F31"/>
<rect x="456" y="525" width="35" height="35" fill="#707070"/>
<rect x="491" y="525" width="35" height="35" fill="#707070"/>
<rect x="526" y="525" width="35" height="35" fill="#CF8C8C"/>
<rect x="561" y="525" width="35" height="35" fill="#CF8C8C"/>
<rect x="596" y="525" width="35" height="35" fill="#707070"/>
<rect x="631" y="525" width="35" height="35" fill="#9C9C9C"/>
<rect x="666" y="525" width="35" height="35" fill="#9C9C9C"/>
<rect x="701" y="525" width="35" height="35" fill="#9C9C9C"/>
<rect x="736" y="525" width="35" height="35" fill="#707070"/>
<rect x="771" y="525" width="35" height="35" fill="#381F31"/>
<rect x="386" y="560" width="35" height="35" fill="#381F31"/>
<rect x="421" y="560" width="35" height="35" fill="#707070"/>
<rect x="456" y="560" width="35" height="35" fill="#707070"/>
<rect x="491" y="560" width="35" height="35" fill="#707070"/>
<rect x="526" y="560" width="35" height="35" fill="#707070"/>
<rect x="561" y="560" width="35" height="35" fill="#707070"/>
<rect x="596" y="560" width="35" height="35" fill="#707070"/>
<rect x="631" y="560" width="35" height="35" fill="#707070"/>
<rect x="666" y="560" width="35" height="35" fill="#707070"/>
<rect x="701" y="560" width="35" height="35" fill="#707070"/>
<rect x="736" y="560" width="35" height="35" fill="#707070"/>
<rect x="771" y="560" width="35" height="35" fill="#381F31"/>
<rect x="386" y="595" width="35" height="35" fill="#381F31"/>
<rect x="421" y="595" width="35" height="35" fill="#A19667"/>
<rect x="456" y="595" width="35" height="35" fill="#707070"/>
<rect x="491" y="595" width="35" height="35" fill="#707070"/>
<rect x="526" y="595" width="35" height="35" fill="#707070"/>
<rect x="561" y="595" width="35" height="35" fill="#707070"/>
<rect x="596" y="595" width="35" height="35" fill="#635929"/>
<rect x="631" y="595" width="35" height="35" fill="#9C9C9C"/>
<rect x="666" y="595" width="35" height="35" fill="#9C9C9C"/>
<rect x="701" y="595" width="35" height="35" fill="#635929"/>
<rect x="736" y="595" width="35" height="35" fill="#9C9C9C"/>
<rect x="771" y="595" width="35" height="35" fill="#381F31"/>
<rect x="386" y="630" width="35" height="35" fill="#381F31"/>
<rect x="421" y="630" width="35" height="35" fill="#A19667"/>
<rect x="456" y="630" width="35" height="35" fill="#707070"/>
<rect x="491" y="630" width="35" height="35" fill="#707070"/>
<rect x="526" y="630" width="35" height="35" fill="#707070"/>
<rect x="561" y="630" width="35" height="35" fill="#635929"/>
<rect x="596" y="630" width="35" height="35" fill="#BF050F"/>
<rect x="631" y="630" width="35" height="35" fill="#A19667"/>
<rect x="666" y="630" width="35" height="35" fill="#A19667"/>
<rect x="701" y="630" width="35" height="35" fill="#BF050F"/>
<rect x="736" y="630" width="35" height="35" fill="#635929"/>
<rect x="771" y="630" width="35" height="35" fill="#381F31"/>
<rect x="386" y="665" width="35" height="35" fill="#381F31"/>
<rect x="421" y="665" width="35" height="35" fill="#635929"/>
<rect x="456" y="665" width="35" height="35" fill="#707070"/>
<rect x="491" y="665" width="35" height="35" fill="#707070"/>
<rect x="526" y="665" width="35" height="35" fill="#CF8C8C"/>
<rect x="561" y="665" width="35" height="35" fill="#A19667"/>
<rect x="596" y="665" width="35" height="35" fill="#DD222C"/>
<rect x="631" y="665" width="35" height="35" fill="#A19667"/>
<rect x="666" y="665" width="35" height="35" fill="#A19667"/>
<rect x="701" y="665" width="35" height="35" fill="#DD222C"/>
<rect x="736" y="665" width="35" height="35" fill="#635929"/>
<rect x="771" y="665" width="35" height="35" fill="#381F31"/>
<rect x="421" y="700" width="35" height="35" fill="#381F31"/>
<rect x="456" y="700" width="35" height="35" fill="#707070"/>
<rect x="491" y="700" width="35" height="35" fill="#707070"/>
<rect x="526" y="700" width="35" height="35" fill="#BB5656"/>
<rect x="561" y="700" width="35" height="35" fill="#A19667"/>
<rect x="596" y="700" width="35" height="35" fill="#A19667"/>
<rect x="631" y="700" width="35" height="35" fill="#A19667"/>
<rect x="666" y="700" width="35" height="35" fill="#A19667"/>
<rect x="701" y="700" width="35" height="35" fill="#A19667"/>
<rect x="736" y="700" width="35" height="35" fill="#635929"/>
<rect x="771" y="700" width="35" height="35" fill="#381F31"/>
<rect x="456" y="735" width="35" height="35" fill="#381F31"/>
<rect x="491" y="735" width="35" height="35" fill="#707070"/>
<rect x="526" y="735" width="35" height="35" fill="#BB5656"/>
<rect x="561" y="735" width="35" height="35" fill="#A19667"/>
<rect x="596" y="735" width="35" height="35" fill="#A19667"/>
<rect x="631" y="735" width="35" height="35" fill="#D6917C"/>
<rect x="666" y="735" width="35" height="35" fill="#D6917C"/>
<rect x="701" y="735" width="35" height="35" fill="#A19667"/>
<rect x="736" y="735" width="35" height="35" fill="#A19667"/>
<rect x="771" y="735" width="35" height="35" fill="#381F31"/>
<rect x="456" y="770" width="35" height="35" fill="#381F31"/>
<rect x="491" y="770" width="35" height="35" fill="#707070"/>
<rect x="526" y="770" width="35" height="35" fill="#707070"/>
<rect x="561" y="770" width="35" height="35" fill="#A19667"/>
<rect x="596" y="770" width="35" height="35" fill="#A19667"/>
<rect x="631" y="770" width="35" height="35" fill="#A19667"/>
<rect x="666" y="770" width="35" height="35" fill="#A19667"/>
<rect x="701" y="770" width="35" height="35" fill="#A19667"/>
<rect x="736" y="770" width="35" height="35" fill="#A19667"/>
<rect x="771" y="770" width="35" height="35" fill="#381F31"/>
<rect x="456" y="805" width="35" height="35" fill="#381F31"/>
<rect x="491" y="805" width="35" height="35" fill="#707070"/>
<rect x="526" y="805" width="35" height="35" fill="#707070"/>
<rect x="561" y="805" width="35" height="35" fill="#707070"/>
<rect x="596" y="805" width="35" height="35" fill="#A19667"/>
<rect x="631" y="805" width="35" height="35" fill="#A19667"/>
<rect x="666" y="805" width="35" height="35" fill="#A19667"/>
<rect x="701" y="805" width="35" height="35" fill="#A19667"/>
<rect x="736" y="805" width="35" height="35" fill="#9C9C9C"/>
<rect x="771" y="805" width="35" height="35" fill="#381F31"/>
<rect x="456" y="840" width="35" height="35" fill="#381F31"/>
<rect x="491" y="840" width="35" height="35" fill="#707070"/>
<rect x="526" y="840" width="35" height="35" fill="#707070"/>
<rect x="561" y="840" width="35" height="35" fill="#A19667"/>
<rect x="596" y="840" width="35" height="35" fill="#A19667"/>
<rect x="631" y="840" width="35" height="35" fill="#D6917C"/>
<rect x="666" y="840" width="35" height="35" fill="#BB5656"/>
<rect x="701" y="840" width="35" height="35" fill="#A19667"/>
<rect x="736" y="840" width="35" height="35" fill="#9C9C9C"/>
<rect x="771" y="840" width="35" height="35" fill="#381F31"/>
<rect x="456" y="875" width="35" height="35" fill="#381F31"/>
<rect x="491" y="875" width="35" height="35" fill="#707070"/>
<rect x="526" y="875" width="35" height="35" fill="#381F31"/>
<rect x="561" y="875" width="35" height="35" fill="#707070"/>
<rect x="596" y="875" width="35" height="35" fill="#A19667"/>
<rect x="631" y="875" width="35" height="35" fill="#A19667"/>
<rect x="666" y="875" width="35" height="35" fill="#A19667"/>
<rect x="701" y="875" width="35" height="35" fill="#A19667"/>
<rect x="736" y="875" width="35" height="35" fill="#381F31"/>
<rect x="456" y="910" width="35" height="35" fill="#381F31"/>
<rect x="491" y="910" width="35" height="35" fill="#707070"/>
<rect x="526" y="910" width="35" height="35" fill="#635929"/>
<rect x="561" y="910" width="35" height="35" fill="#381F31"/>
<rect x="596" y="910" width="35" height="35" fill="#707070"/>
<rect x="631" y="910" width="35" height="35" fill="#707070"/>
<rect x="666" y="910" width="35" height="35" fill="#9C9C9C"/>
<rect x="701" y="910" width="35" height="35" fill="#381F31"/>
<rect x="456" y="945" width="35" height="35" fill="#381F31"/>
<rect x="491" y="945" width="35" height="35" fill="#707070"/>
<rect x="526" y="945" width="35" height="35" fill="#635929"/>
<rect x="561" y="945" width="35" height="35" fill="#381F31"/>
<rect x="596" y="945" width="35" height="35" fill="#381F31"/>
<rect x="631" y="945" width="35" height="35" fill="#381F31"/>
<rect x="666" y="945" width="35" height="35" fill="#381F31"/>
<rect x="456" y="980" width="35" height="35" fill="#381F31"/>
<rect x="491" y="980" width="35" height="35" fill="#707070"/>
<rect x="526" y="980" width="35" height="35" fill="#635929"/>
<rect x="561" y="980" width="35" height="35" fill="#381F31"/>
<rect x="421" y="1015" width="35" height="35" fill="#381F31"/>
<rect x="456" y="1015" width="35" height="35" fill="#707070"/>
<rect x="491" y="1015" width="35" height="35" fill="#707070"/>
<rect x="526" y="1015" width="35" height="35" fill="#707070"/>
<rect x="561" y="1015" width="35" height="35" fill="#707070"/>
<rect x="596" y="1015" width="35" height="35" fill="#381F31"/>
<rect x="386" y="1050" width="35" height="35" fill="#381F31"/>
<rect x="421" y="1050" width="35" height="35" fill="#707070"/>
<rect x="456" y="1050" width="35" height="35" fill="#707070"/>
<rect x="491" y="1050" width="35" height="35" fill="#707070"/>
<rect x="526" y="1050" width="35" height="35" fill="#707070"/>
<rect x="561" y="1050" width="35" height="35" fill="#707070"/>
<rect x="596" y="1050" width="35" height="35" fill="#9C9C9C"/>
<rect x="631" y="1050" width="35" height="35" fill="#381F31"/>
<rect x="351" y="1085" width="35" height="35" fill="#381F31"/>
<rect x="386" y="1085" width="35" height="35" fill="#707070"/>
<rect x="421" y="1085" width="35" height="35" fill="#D6917C"/>
<rect x="456" y="1085" width="35" height="35" fill="#BB5656"/>
<rect x="491" y="1085" width="35" height="35" fill="#707070"/>
<rect x="526" y="1085" width="35" height="35" fill="#707070"/>
<rect x="561" y="1085" width="35" height="35" fill="#707070"/>
<rect x="596" y="1085" width="35" height="35" fill="#707070"/>
<rect x="631" y="1085" width="35" height="35" fill="#9C9C9C"/>
<rect x="666" y="1085" width="35" height="35" fill="#381F31"/>
<rect x="420" y="280" width="35" height="35" fill="#381F31"/>
<rect x="455" y="280" width="35" height="35" fill="#381F31"/>
<rect x="490" y="280" width="35" height="35" fill="#381F31"/>
<rect x="525" y="280" width="35" height="35" fill="#381F31"/>
<rect x="560" y="280" width="35" height="35" fill="#381F31"/>
<rect x="595" y="280" width="35" height="35" fill="#381F31"/>
<rect x="630" y="280" width="35" height="35" fill="#381F31"/>
<rect x="385" y="315" width="35" height="35" fill="#381F31"/>
<rect x="420" y="315" width="35" height="35" fill="#5E4669"/>
<rect x="455" y="315" width="35" height="35" fill="#705D78"/>
<rect x="490" y="315" width="35" height="35" fill="#705D78"/>
<rect x="525" y="315" width="35" height="35" fill="#705D78"/>
<rect x="560" y="315" width="35" height="35" fill="#705D78"/>
<rect x="595" y="315" width="35" height="35" fill="#705D78"/>
<rect x="630" y="315" width="35" height="35" fill="#705D78"/>
<rect x="665" y="315" width="35" height="35" fill="#381F31"/>
<rect x="700" y="315" width="35" height="35" fill="#381F31"/>
<rect x="350" y="350" width="35" height="35" fill="#381F31"/>
<rect x="385" y="350" width="35" height="35" fill="#5E4669"/>
<rect x="420" y="350" width="35" height="35" fill="#705D78"/>
<rect x="455" y="350" width="35" height="35" fill="#705D78"/>
<rect x="490" y="350" width="35" height="35" fill="#5E4669"/>
<rect x="525" y="350" width="35" height="35" fill="#705D78"/>
<rect x="560" y="350" width="35" height="35" fill="#705D78"/>
<rect x="595" y="350" width="35" height="35" fill="#705D78"/>
<rect x="630" y="350" width="35" height="35" fill="#705D78"/>
<rect x="665" y="350" width="35" height="35" fill="#705D78"/>
<rect x="700" y="350" width="35" height="35" fill="#705D78"/>
<rect x="735" y="350" width="35" height="35" fill="#381F31"/>
<rect x="315" y="385" width="35" height="35" fill="#381F31"/>
<rect x="350" y="385" width="35" height="35" fill="#5E4669"/>
<rect x="385" y="385" width="35" height="35" fill="#5E4669"/>
<rect x="420" y="385" width="35" height="35" fill="#5E4669"/>
<rect x="455" y="385" width="35" height="35" fill="#5E4669"/>
<rect x="490" y="385" width="35" height="35" fill="#705D78"/>
<rect x="525" y="385" width="35" height="35" fill="#705D78"/>
<rect x="560" y="385" width="35" height="35" fill="#705D78"/>
<rect x="595" y="385" width="35" height="35" fill="#705D78"/>
<rect x="630" y="385" width="35" height="35" fill="#705D78"/>
<rect x="665" y="385" width="35" height="35" fill="#705D78"/>
<rect x="700" y="385" width="35" height="35" fill="#705D78"/>
<rect x="735" y="385" width="35" height="35" fill="#705D78"/>
<rect x="770" y="385" width="35" height="35" fill="#381F31"/>
<rect x="315" y="420" width="35" height="35" fill="#381F31"/>
<rect x="350" y="420" width="35" height="35" fill="#5E4669"/>
<rect x="385" y="420" width="35" height="35" fill="#5E4669"/>
<rect x="420" y="420" width="35" height="35" fill="#5E4669"/>
<rect x="455" y="420" width="35" height="35" fill="#705D78"/>
<rect x="490" y="420" width="35" height="35" fill="#5E4669"/>
<rect x="525" y="420" width="35" height="35" fill="#5E4669"/>
<rect x="560" y="420" width="35" height="35" fill="#705D78"/>
<rect x="595" y="420" width="35" height="35" fill="#705D78"/>
<rect x="630" y="420" width="35" height="35" fill="#705D78"/>
<rect x="665" y="420" width="35" height="35" fill="#705D78"/>
<rect x="700" y="420" width="35" height="35" fill="#705D78"/>
<rect x="735" y="420" width="35" height="35" fill="#705D78"/>
<rect x="770" y="420" width="35" height="35" fill="#381F31"/>
<rect x="315" y="455" width="35" height="35" fill="#381F31"/>
<rect x="350" y="455" width="35" height="35" fill="#5E4669"/>
<rect x="385" y="455" width="35" height="35" fill="#5E4669"/>
<rect x="420" y="455" width="35" height="35" fill="#705D78"/>
<rect x="455" y="455" width="35" height="35" fill="#5E4669"/>
<rect x="490" y="455" width="35" height="35" fill="#5E4669"/>
<rect x="525" y="455" width="35" height="35" fill="#5E4669"/>
<rect x="560" y="455" width="35" height="35" fill="#462A52"/>
<rect x="595" y="455" width="35" height="35" fill="#462A52"/>
<rect x="630" y="455" width="35" height="35" fill="#462A52"/>
<rect x="665" y="455" width="35" height="35" fill="#462A52"/>
<rect x="700" y="455" width="35" height="35" fill="#462A52"/>
<rect x="735" y="455" width="35" height="35" fill="#462A52"/>
<rect x="770" y="455" width="35" height="35" fill="#5E4669"/>
<rect x="805" y="455" width="35" height="35" fill="#381F31"/>
<rect x="315" y="490" width="35" height="35" fill="#381F31"/>
<rect x="350" y="490" width="35" height="35" fill="#5E4669"/>
<rect x="385" y="490" width="35" height="35" fill="#5E4669"/>
<rect x="420" y="490" width="35" height="35" fill="#5E4669"/>
<rect x="455" y="490" width="35" height="35" fill="#5E4669"/>
<rect x="490" y="490" width="35" height="35" fill="#462A52"/>
<rect x="525" y="490" width="35" height="35" fill="#462A52"/>
<rect x="560" y="490" width="35" height="35" fill="#705D78"/>
<rect x="595" y="490" width="35" height="35" fill="#462A52"/>
<rect x="630" y="490" width="35" height="35" fill="#91999E"/>
<rect x="665" y="490" width="35" height="35" fill="#B2BCC2"/>
<rect x="700" y="490" width="35" height="35" fill="#DEDEDE"/>
<rect x="735" y="490" width="35" height="35" fill="#462A52"/>
<rect x="770" y="490" width="35" height="35" fill="#462A52"/>
<rect x="805" y="490" width="35" height="35" fill="#381F31"/>
<rect x="350" y="525" width="35" height="35" fill="#381F31"/>
<rect x="385" y="525" width="35" height="35" fill="#5E4669"/>
<rect x="420" y="525" width="35" height="35" fill="#462A52"/>
<rect x="455" y="525" width="35" height="35" fill="#462A52"/>
<rect x="490" y="525" width="35" height="35" fill="#5E4669"/>
<rect x="525" y="525" width="35" height="35" fill="#462A52"/>
<rect x="560" y="525" width="35" height="35" fill="#705D78"/>
<rect x="595" y="525" width="35" height="35" fill="#462A52"/>
<rect x="630" y="525" width="35" height="35" fill="#705D78"/>
<rect x="665" y="525" width="35" height="35" fill="#462A52"/>
<rect x="700" y="525" width="35" height="35" fill="#705D78"/>
<rect x="735" y="525" width="35" height="35" fill="#462A52"/>
<rect x="770" y="525" width="35" height="35" fill="#5E4669"/>
<rect x="805" y="525" width="35" height="35" fill="#381F31"/>
<rect x="350" y="560" width="35" height="35" fill="#381F31"/>
<rect x="385" y="560" width="35" height="35" fill="#462A52"/>
<rect x="420" y="560" width="35" height="35" fill="#5E4669"/>
<rect x="455" y="560" width="35" height="35" fill="#462A52"/>
<rect x="490" y="560" width="35" height="35" fill="#5E4669"/>
<rect x="770" y="560" width="35" height="35" fill="#5E4669"/>
<rect x="805" y="560" width="35" height="35" fill="#381F31"/>
<rect x="350" y="595" width="35" height="35" fill="#381F31"/>
<rect x="385" y="595" width="35" height="35" fill="#462A52"/>
<rect x="805" y="490" width="35" height="35" fill="#381F31"/>
<rect x="385" y="525" width="35" height="35" fill="#381F31"/>
<rect x="420" y="525" width="35" height="35" fill="white"/>
<rect x="455" y="525" width="35" height="35" fill="#B2BCC2"/>
<rect x="490" y="525" width="35" height="35" fill="white"/>
<rect x="525" y="525" width="35" height="35" fill="white"/>
<rect x="560" y="525" width="35" height="35" fill="white"/>
<rect x="595" y="525" width="35" height="35" fill="white"/>
<rect x="630" y="525" width="35" height="35" fill="white"/>
<rect x="665" y="525" width="35" height="35" fill="white"/>
<rect x="700" y="525" width="35" height="35" fill="white"/>
<rect x="735" y="525" width="35" height="35" fill="white"/>
<rect x="770" y="525" width="35" height="35" fill="white"/>
<rect x="805" y="525" width="35" height="35" fill="white"/>
<rect x="840" y="525" width="35" height="35" fill="#381F31"/>
<rect x="420" y="560" width="35" height="35" fill="white"/>
<rect x="455" y="560" width="35" height="35" fill="#B2BCC2"/>
<rect x="490" y="560" width="35" height="35" fill="white"/>
<rect x="525" y="560" width="35" height="35" fill="#FB2626"/>
<rect x="560" y="560" width="35" height="35" fill="#FA6225"/>
<rect x="595" y="560" width="35" height="35" fill="#FAA125"/>
<rect x="630" y="560" width="35" height="35" fill="#FAA125"/>
<rect x="665" y="560" width="35" height="35" fill="#FAF325"/>
<rect x="700" y="560" width="35" height="35" fill="#FB2626"/>
<rect x="735" y="560" width="35" height="35" fill="#FA6225"/>
<rect x="770" y="560" width="35" height="35" fill="#FAF325"/>
<rect x="805" y="560" width="35" height="35" fill="white"/>
<rect x="840" y="560" width="35" height="35" fill="#381F31"/>
<rect x="490" y="595" width="35" height="35" fill="white"/>
<rect x="525" y="595" width="35" height="35" fill="#FB2626"/>
<rect x="560" y="595" width="35" height="35" fill="#FA6225"/>
<rect x="595" y="595" width="35" height="35" fill="#FAA125"/>
<rect x="630" y="595" width="35" height="35" fill="#FB2626"/>
<rect x="665" y="595" width="35" height="35" fill="#FAF325"/>
<rect x="700" y="595" width="35" height="35" fill="#FB2626"/>
<rect x="735" y="595" width="35" height="35" fill="#FA6225"/>
<rect x="770" y="595" width="35" height="35" fill="#FAF325"/>
<rect x="805" y="595" width="35" height="35" fill="white"/>
<rect x="840" y="595" width="35" height="35" fill="#381F31"/>
<rect x="490" y="630" width="35" height="35" fill="white"/>
<rect x="525" y="630" width="35" height="35" fill="#FB2626"/>
<rect x="560" y="630" width="35" height="35" fill="#FA6225"/>
<rect x="595" y="630" width="35" height="35" fill="#FA6225"/>
<rect x="630" y="630" width="35" height="35" fill="#FB2626"/>
<rect x="665" y="630" width="35" height="35" fill="#FA6225"/>
<rect x="700" y="630" width="35" height="35" fill="#FAF325"/>
<rect x="735" y="630" width="35" height="35" fill="#FB2626"/>
<rect x="770" y="630" width="35" height="35" fill="#FAA125"/>
<rect x="805" y="630" width="35" height="35" fill="white"/>
<rect x="840" y="630" width="35" height="35" fill="#381F31"/>
<rect x="490" y="665" width="35" height="35" fill="white"/>
<rect x="525" y="665" width="35" height="35" fill="#FB2626"/>
<rect x="560" y="665" width="35" height="35" fill="#FA6225"/>
<rect x="595" y="665" width="35" height="35" fill="#FB2626"/>
<rect x="630" y="665" width="35" height="35" fill="#FB2626"/>
<rect x="665" y="665" width="35" height="35" fill="#FA6225"/>
<rect x="700" y="665" width="35" height="35" fill="#FB2626"/>
<rect x="735" y="665" width="35" height="35" fill="#FAA125"/>
<rect x="770" y="665" width="35" height="35" fill="#FAA125"/>
<rect x="805" y="665" width="35" height="35" fill="white"/>
<rect x="840" y="665" width="35" height="35" fill="#381F31"/>
<rect x="490" y="700" width="35" height="35" fill="#B2BCC2"/>
<rect x="525" y="700" width="35" height="35" fill="white"/>
<rect x="560" y="700" width="35" height="35" fill="white"/>
<rect x="595" y="700" width="35" height="35" fill="white"/>
<rect x="630" y="700" width="35" height="35" fill="white"/>
<rect x="665" y="700" width="35" height="35" fill="white"/>
<rect x="700" y="700" width="35" height="35" fill="white"/>
<rect x="735" y="700" width="35" height="35" fill="white"/>
<rect x="770" y="700" width="35" height="35" fill="white"/>
<rect x="805" y="700" width="35" height="35" fill="#B2BCC2"/>
<rect x="840" y="700" width="35" height="35" fill="#381F31"/>
<rect x="805" y="735" width="35" height="35" fill="#381F31"/>
</svg>
