<svg width="1120" height="1120" viewBox="0 0 1120 1120" fill="none" xmlns="http://www.w3.org/2000/svg">
<rect width="1120" height="1120" fill="#A2E5F4"/>
<rect x="525" y="385" width="35" height="35" fill="#381F31"/>
<rect x="560" y="385" width="35" height="35" fill="#381F31"/>
<rect x="595" y="385" width="35" height="35" fill="#381F31"/>
<rect x="630" y="385" width="35" height="35" fill="#381F31"/>
<rect x="665" y="385" width="35" height="35" fill="#381F31"/>
<rect x="490" y="420" width="35" height="35" fill="#381F31"/>
<rect x="525" y="420" width="35" height="35" fill="#707070"/>
<rect x="560" y="420" width="35" height="35" fill="#9C9C9C"/>
<rect x="595" y="420" width="35" height="35" fill="#9C9C9C"/>
<rect x="630" y="420" width="35" height="35" fill="#9C9C9C"/>
<rect x="665" y="420" width="35" height="35" fill="#9C9C9C"/>
<rect x="700" y="420" width="35" height="35" fill="#381F31"/>
<rect x="455" y="455" width="35" height="35" fill="#381F31"/>
<rect x="490" y="455" width="35" height="35" fill="#BB5656"/>
<rect x="525" y="455" width="35" height="35" fill="#BB5656"/>
<rect x="560" y="455" width="35" height="35" fill="#9C9C9C"/>
<rect x="595" y="455" width="35" height="35" fill="#9C9C9C"/>
<rect x="630" y="455" width="35" height="35" fill="#9C9C9C"/>
<rect x="665" y="455" width="35" height="35" fill="#9C9C9C"/>
<rect x="700" y="455" width="35" height="35" fill="#9C9C9C"/>
<rect x="735" y="455" width="35" height="35" fill="#381F31"/>
<rect x="420" y="490" width="35" height="35" fill="#381F31"/>
<rect x="455" y="490" width="35" height="35" fill="#707070"/>
<rect x="490" y="490" width="35" height="35" fill="#CF8C8C"/>
<rect x="525" y="490" width="35" height="35" fill="#CF8C8C"/>
<rect x="560" y="490" width="35" height="35" fill="#BB5656"/>
<rect x="595" y="490" width="35" height="35" fill="#9C9C9C"/>
<rect x="630" y="490" width="35" height="35" fill="#9C9C9C"/>
<rect x="665" y="490" width="35" height="35" fill="#9C9C9C"/>
<rect x="700" y="490" width="35" height="35" fill="#9C9C9C"/>
<rect x="735" y="490" width="35" height="35" fill="#9C9C9C"/>
<rect x="770" y="490" width="35" height="35" fill="#381F31"/>
<rect x="420" y="525" width="35" height="35" fill="#381F31"/>
<rect x="455" y="525" width="35" height="35" fill="#707070"/>
<rect x="490" y="525" width="35" height="35" fill="#707070"/>
<rect x="525" y="525" width="35" height="35" fill="#CF8C8C"/>
<rect x="560" y="525" width="35" height="35" fill="#CF8C8C"/>
<rect x="595" y="525" width="35" height="35" fill="#707070"/>
<rect x="630" y="525" width="35" height="35" fill="#9C9C9C"/>
<rect x="665" y="525" width="35" height="35" fill="#9C9C9C"/>
<rect x="700" y="525" width="35" height="35" fill="#9C9C9C"/>
<rect x="735" y="525" width="35" height="35" fill="#707070"/>
<rect x="770" y="525" width="35" height="35" fill="#381F31"/>
<rect x="385" y="560" width="35" height="35" fill="#381F31"/>
<rect x="420" y="560" width="35" height="35" fill="#707070"/>
<rect x="455" y="560" width="35" height="35" fill="#707070"/>
<rect x="490" y="560" width="35" height="35" fill="#707070"/>
<rect x="525" y="560" width="35" height="35" fill="#707070"/>
<rect x="560" y="560" width="35" height="35" fill="#707070"/>
<rect x="595" y="560" width="35" height="35" fill="#707070"/>
<rect x="630" y="560" width="35" height="35" fill="#707070"/>
<rect x="665" y="560" width="35" height="35" fill="#707070"/>
<rect x="700" y="560" width="35" height="35" fill="#707070"/>
<rect x="735" y="560" width="35" height="35" fill="#707070"/>
<rect x="770" y="560" width="35" height="35" fill="#381F31"/>
<rect x="385" y="595" width="35" height="35" fill="#381F31"/>
<rect x="420" y="595" width="35" height="35" fill="#A19667"/>
<rect x="455" y="595" width="35" height="35" fill="#707070"/>
<rect x="490" y="595" width="35" height="35" fill="#707070"/>
<rect x="525" y="595" width="35" height="35" fill="#707070"/>
<rect x="560" y="595" width="35" height="35" fill="#707070"/>
<rect x="595" y="595" width="35" height="35" fill="#635929"/>
<rect x="630" y="595" width="35" height="35" fill="#9C9C9C"/>
<rect x="665" y="595" width="35" height="35" fill="#9C9C9C"/>
<rect x="700" y="595" width="35" height="35" fill="#635929"/>
<rect x="735" y="595" width="35" height="35" fill="#9C9C9C"/>
<rect x="770" y="595" width="35" height="35" fill="#381F31"/>
<rect x="385" y="630" width="35" height="35" fill="#381F31"/>
<rect x="420" y="630" width="35" height="35" fill="#A19667"/>
<rect x="455" y="630" width="35" height="35" fill="#707070"/>
<rect x="490" y="630" width="35" height="35" fill="#707070"/>
<rect x="525" y="630" width="35" height="35" fill="#707070"/>
<rect x="560" y="630" width="35" height="35" fill="#635929"/>
<rect x="595" y="630" width="35" height="35" fill="#BF050F"/>
<rect x="630" y="630" width="35" height="35" fill="#A19667"/>
<rect x="665" y="630" width="35" height="35" fill="#A19667"/>
<rect x="700" y="630" width="35" height="35" fill="#BF050F"/>
<rect x="735" y="630" width="35" height="35" fill="#635929"/>
<rect x="770" y="630" width="35" height="35" fill="#381F31"/>
<rect x="385" y="665" width="35" height="35" fill="#381F31"/>
<rect x="420" y="665" width="35" height="35" fill="#635929"/>
<rect x="455" y="665" width="35" height="35" fill="#707070"/>
<rect x="490" y="665" width="35" height="35" fill="#707070"/>
<rect x="525" y="665" width="35" height="35" fill="#CF8C8C"/>
<rect x="560" y="665" width="35" height="35" fill="#A19667"/>
<rect x="595" y="665" width="35" height="35" fill="#DD222C"/>
<rect x="630" y="665" width="35" height="35" fill="#A19667"/>
<rect x="665" y="665" width="35" height="35" fill="#A19667"/>
<rect x="700" y="665" width="35" height="35" fill="#DD222C"/>
<rect x="735" y="665" width="35" height="35" fill="#635929"/>
<rect x="770" y="665" width="35" height="35" fill="#381F31"/>
<rect x="420" y="700" width="35" height="35" fill="#381F31"/>
<rect x="455" y="700" width="35" height="35" fill="#707070"/>
<rect x="490" y="700" width="35" height="35" fill="#707070"/>
<rect x="525" y="700" width="35" height="35" fill="#BB5656"/>
<rect x="560" y="700" width="35" height="35" fill="#A19667"/>
<rect x="595" y="700" width="35" height="35" fill="#A19667"/>
<rect x="630" y="700" width="35" height="35" fill="#A19667"/>
<rect x="665" y="700" width="35" height="35" fill="#A19667"/>
<rect x="700" y="700" width="35" height="35" fill="#A19667"/>
<rect x="735" y="700" width="35" height="35" fill="#635929"/>
<rect x="770" y="700" width="35" height="35" fill="#381F31"/>
<rect x="455" y="735" width="35" height="35" fill="#381F31"/>
<rect x="490" y="735" width="35" height="35" fill="#707070"/>
<rect x="525" y="735" width="35" height="35" fill="#BB5656"/>
<rect x="560" y="735" width="35" height="35" fill="#A19667"/>
<rect x="595" y="735" width="35" height="35" fill="#A19667"/>
<rect x="630" y="735" width="35" height="35" fill="#D6917C"/>
<rect x="665" y="735" width="35" height="35" fill="#D6917C"/>
<rect x="700" y="735" width="35" height="35" fill="#A19667"/>
<rect x="735" y="735" width="35" height="35" fill="#A19667"/>
<rect x="770" y="735" width="35" height="35" fill="#381F31"/>
<rect x="455" y="770" width="35" height="35" fill="#381F31"/>
<rect x="490" y="770" width="35" height="35" fill="#707070"/>
<rect x="525" y="770" width="35" height="35" fill="#707070"/>
<rect x="560" y="770" width="35" height="35" fill="#A19667"/>
<rect x="595" y="770" width="35" height="35" fill="#A19667"/>
<rect x="630" y="770" width="35" height="35" fill="#A19667"/>
<rect x="665" y="770" width="35" height="35" fill="#A19667"/>
<rect x="700" y="770" width="35" height="35" fill="#A19667"/>
<rect x="735" y="770" width="35" height="35" fill="#A19667"/>
<rect x="770" y="770" width="35" height="35" fill="#381F31"/>
<rect x="455" y="805" width="35" height="35" fill="#381F31"/>
<rect x="490" y="805" width="35" height="35" fill="#707070"/>
<rect x="525" y="805" width="35" height="35" fill="#707070"/>
<rect x="560" y="805" width="35" height="35" fill="#707070"/>
<rect x="595" y="805" width="35" height="35" fill="#A19667"/>
<rect x="630" y="805" width="35" height="35" fill="#A19667"/>
<rect x="665" y="805" width="35" height="35" fill="#A19667"/>
<rect x="700" y="805" width="35" height="35" fill="#A19667"/>
<rect x="735" y="805" width="35" height="35" fill="#9C9C9C"/>
<rect x="770" y="805" width="35" height="35" fill="#381F31"/>
<rect x="455" y="840" width="35" height="35" fill="#381F31"/>
<rect x="490" y="840" width="35" height="35" fill="#707070"/>
<rect x="525" y="840" width="35" height="35" fill="#707070"/>
<rect x="560" y="840" width="35" height="35" fill="#A19667"/>
<rect x="595" y="840" width="35" height="35" fill="#A19667"/>
<rect x="630" y="840" width="35" height="35" fill="#D6917C"/>
<rect x="665" y="840" width="35" height="35" fill="#BB5656"/>
<rect x="700" y="840" width="35" height="35" fill="#A19667"/>
<rect x="735" y="840" width="35" height="35" fill="#9C9C9C"/>
<rect x="770" y="840" width="35" height="35" fill="#381F31"/>
<rect x="455" y="875" width="35" height="35" fill="#381F31"/>
<rect x="490" y="875" width="35" height="35" fill="#707070"/>
<rect x="525" y="875" width="35" height="35" fill="#381F31"/>
<rect x="560" y="875" width="35" height="35" fill="#707070"/>
<rect x="595" y="875" width="35" height="35" fill="#A19667"/>
<rect x="630" y="875" width="35" height="35" fill="#A19667"/>
<rect x="665" y="875" width="35" height="35" fill="#A19667"/>
<rect x="700" y="875" width="35" height="35" fill="#A19667"/>
<rect x="735" y="875" width="35" height="35" fill="#381F31"/>
<rect x="455" y="910" width="35" height="35" fill="#381F31"/>
<rect x="490" y="910" width="35" height="35" fill="#707070"/>
<rect x="525" y="910" width="35" height="35" fill="#635929"/>
<rect x="560" y="910" width="35" height="35" fill="#381F31"/>
<rect x="595" y="910" width="35" height="35" fill="#707070"/>
<rect x="630" y="910" width="35" height="35" fill="#707070"/>
<rect x="665" y="910" width="35" height="35" fill="#9C9C9C"/>
<rect x="700" y="910" width="35" height="35" fill="#381F31"/>
<rect x="455" y="945" width="35" height="35" fill="#381F31"/>
<rect x="490" y="945" width="35" height="35" fill="#707070"/>
<rect x="525" y="945" width="35" height="35" fill="#635929"/>
<rect x="560" y="945" width="35" height="35" fill="#381F31"/>
<rect x="595" y="945" width="35" height="35" fill="#381F31"/>
<rect x="630" y="945" width="35" height="35" fill="#381F31"/>
<rect x="665" y="945" width="35" height="35" fill="#381F31"/>
<rect x="455" y="980" width="35" height="35" fill="#381F31"/>
<rect x="490" y="980" width="35" height="35" fill="#707070"/>
<rect x="525" y="980" width="35" height="35" fill="#635929"/>
<rect x="560" y="980" width="35" height="35" fill="#381F31"/>
<rect x="420" y="1015" width="35" height="35" fill="#381F31"/>
<rect x="455" y="1015" width="35" height="35" fill="#707070"/>
<rect x="490" y="1015" width="35" height="35" fill="#707070"/>
<rect x="525" y="1015" width="35" height="35" fill="#707070"/>
<rect x="560" y="1015" width="35" height="35" fill="#707070"/>
<rect x="595" y="1015" width="35" height="35" fill="#381F31"/>
<rect x="385" y="1050" width="35" height="35" fill="#381F31"/>
<rect x="420" y="1050" width="35" height="35" fill="#707070"/>
<rect x="455" y="1050" width="35" height="35" fill="#707070"/>
<rect x="490" y="1050" width="35" height="35" fill="#707070"/>
<rect x="525" y="1050" width="35" height="35" fill="#707070"/>
<rect x="560" y="1050" width="35" height="35" fill="#707070"/>
<rect x="595" y="1050" width="35" height="35" fill="#9C9C9C"/>
<rect x="630" y="1050" width="35" height="35" fill="#381F31"/>
<rect x="350" y="1085" width="35" height="35" fill="#381F31"/>
<rect x="385" y="1085" width="35" height="35" fill="#707070"/>
<rect x="420" y="1085" width="35" height="35" fill="#D6917C"/>
<rect x="455" y="1085" width="35" height="35" fill="#BB5656"/>
<rect x="490" y="1085" width="35" height="35" fill="#707070"/>
<rect x="525" y="1085" width="35" height="35" fill="#707070"/>
<rect x="560" y="1085" width="35" height="35" fill="#707070"/>
<rect x="595" y="1085" width="35" height="35" fill="#707070"/>
<rect x="630" y="1085" width="35" height="35" fill="#9C9C9C"/>
<rect x="665" y="1085" width="35" height="35" fill="#381F31"/>
<rect x="665" y="315" width="35" height="35" fill="#381F31"/>
<rect x="630" y="350" width="35" height="35" fill="#381F31"/>
<rect x="665" y="350" width="35" height="35" fill="#FFF275"/>
<rect x="700" y="350" width="35" height="35" fill="#381F31"/>
<rect x="420" y="385" width="35" height="35" fill="#381F31"/>
<rect x="525" y="385" width="35" height="35" fill="#381F31"/>
<rect x="560" y="385" width="35" height="35" fill="#381F31"/>
<rect x="595" y="385" width="35" height="35" fill="#381F31"/>
<rect x="630" y="385" width="35" height="35" fill="#FFBF36"/>
<rect x="665" y="385" width="35" height="35" fill="#FFF275"/>
<rect x="700" y="385" width="35" height="35" fill="#381F31"/>
<rect x="770" y="385" width="35" height="35" fill="#381F31"/>
<rect x="385" y="420" width="35" height="35" fill="#381F31"/>
<rect x="420" y="420" width="35" height="35" fill="#FFF275"/>
<rect x="455" y="420" width="35" height="35" fill="#381F31"/>
<rect x="490" y="420" width="35" height="35" fill="#381F31"/>
<rect x="595" y="420" width="35" height="35" fill="#FFF275"/>
<rect x="630" y="420" width="35" height="35" fill="#FFBF36"/>
<rect x="665" y="420" width="35" height="35" fill="#FFF275"/>
<rect x="700" y="420" width="35" height="35" fill="#FFBF36"/>
<rect x="735" y="420" width="35" height="35" fill="#381F31"/>
<rect x="770" y="420" width="35" height="35" fill="#CF9115"/>
<rect x="805" y="420" width="35" height="35" fill="#381F31"/>
<rect x="385" y="455" width="35" height="35" fill="#381F31"/>
<rect x="420" y="455" width="35" height="35" fill="#FFBF36"/>
<rect x="455" y="455" width="35" height="35" fill="#FFF275"/>
<rect x="560" y="455" width="35" height="35" fill="#FFBF36"/>
<rect x="595" y="455" width="35" height="35" fill="#FFF275"/>
<rect x="630" y="455" width="35" height="35" fill="#FFBF36"/>
<rect x="665" y="455" width="35" height="35" fill="#A31010"/>
<rect x="700" y="455" width="35" height="35" fill="#FFBF36"/>
<rect x="735" y="455" width="35" height="35" fill="#FFBF36"/>
<rect x="770" y="455" width="35" height="35" fill="#CF9115"/>
<rect x="805" y="455" width="35" height="35" fill="#381F31"/>
<rect x="385" y="490" width="35" height="35" fill="#381F31"/>
<rect x="420" y="490" width="35" height="35" fill="#FFBF36"/>
<rect x="455" y="490" width="35" height="35" fill="#FFF275"/>
<rect x="525" y="490" width="35" height="35" fill="#FFBF36"/>
<rect x="560" y="490" width="35" height="35" fill="#FFBF36"/>
<rect x="595" y="490" width="35" height="35" fill="#FFF275"/>
<rect x="630" y="490" width="35" height="35" fill="#A31010"/>
<rect x="665" y="490" width="35" height="35" fill="#DE1616"/>
<rect x="700" y="490" width="35" height="35" fill="#DE1616"/>
<rect x="735" y="490" width="35" height="35" fill="#FFBF36"/>
<rect x="770" y="490" width="35" height="35" fill="white"/>
<rect x="805" y="490" width="35" height="35" fill="#381F31"/>
<rect x="385" y="525" width="35" height="35" fill="#381F31"/>
<rect x="420" y="525" width="35" height="35" fill="#FFBF36"/>
<rect x="455" y="525" width="35" height="35" fill="#FFBF36"/>
<rect x="490" y="525" width="35" height="35" fill="#FFBF36"/>
<rect x="525" y="525" width="35" height="35" fill="#FFBF36"/>
<rect x="560" y="525" width="35" height="35" fill="#FFBF36"/>
<rect x="595" y="525" width="35" height="35" fill="#FFBF36"/>
<rect x="630" y="525" width="35" height="35" fill="#FFF275"/>
<rect x="665" y="525" width="35" height="35" fill="#FFF275"/>
<rect x="700" y="525" width="35" height="35" fill="white"/>
<rect x="735" y="525" width="35" height="35" fill="white"/>
<rect x="770" y="525" width="35" height="35" fill="#FFF275"/>
<rect x="805" y="525" width="35" height="35" fill="#381F31"/>
<rect x="70" y="525" width="35" height="35" fill="#381F31"/>
<rect x="105" y="525" width="35" height="35" fill="#381F31"/>
<rect x="840" y="525" width="35" height="35" fill="#381F31"/>
<rect x="875" y="525" width="35" height="35" fill="#381F31"/>
<rect x="35" y="560" width="35" height="35" fill="#381F31"/>
<rect x="70" y="560" width="35" height="35" fill="white"/>
<rect x="105" y="560" width="35" height="35" fill="white"/>
<rect x="140" y="560" width="35" height="35" fill="#381F31"/>
<rect x="805" y="560" width="35" height="35" fill="#381F31"/>
<rect x="840" y="560" width="35" height="35" fill="white"/>
<rect x="875" y="560" width="35" height="35" fill="white"/>
<rect x="910" y="560" width="35" height="35" fill="#381F31"/>
<rect x="35" y="595" width="35" height="35" fill="#381F31"/>
<rect x="70" y="595" width="35" height="35" fill="white"/>
<rect x="105" y="595" width="35" height="35" fill="#C7C7C7"/>
<rect x="140" y="595" width="35" height="35" fill="white"/>
<rect x="175" y="595" width="35" height="35" fill="#381F31"/>
<rect x="805" y="595" width="35" height="35" fill="white"/>
<rect x="840" y="595" width="35" height="35" fill="#C7C7C7"/>
<rect x="875" y="595" width="35" height="35" fill="white"/>
<rect x="910" y="595" width="35" height="35" fill="#381F31"/>
<rect x="35" y="630" width="35" height="35" fill="#381F31"/>
<rect x="70" y="630" width="35" height="35" fill="white"/>
<rect x="105" y="630" width="35" height="35" fill="white"/>
<rect x="140" y="630" width="35" height="35" fill="#C7C7C7"/>
<rect x="175" y="630" width="35" height="35" fill="white"/>
<rect x="210" y="630" width="35" height="35" fill="#381F31"/>
<rect x="805" y="630" width="35" height="35" fill="#C7C7C7"/>
<rect x="840" y="630" width="35" height="35" fill="white"/>
<rect x="875" y="630" width="35" height="35" fill="white"/>
<rect x="910" y="630" width="35" height="35" fill="white"/>
<rect x="945" y="630" width="35" height="35" fill="#381F31"/>
<rect y="665" width="35" height="35" fill="#381F31"/>
<rect x="35" y="665" width="35" height="35" fill="#C7C7C7"/>
<rect x="70" y="665" width="35" height="35" fill="#381F31"/>
<rect x="105" y="665" width="35" height="35" fill="white"/>
<rect x="140" y="665" width="35" height="35" fill="#C7C7C7"/>
<rect x="175" y="665" width="35" height="35" fill="white"/>
<rect x="210" y="665" width="35" height="35" fill="white"/>
<rect x="245" y="665" width="35" height="35" fill="#381F31"/>
<rect x="805" y="665" width="35" height="35" fill="#C7C7C7"/>
<rect x="840" y="665" width="35" height="35" fill="white"/>
<rect x="875" y="665" width="35" height="35" fill="white"/>
<rect x="910" y="665" width="35" height="35" fill="white"/>
<rect x="945" y="665" width="35" height="35" fill="#381F31"/>
<rect y="700" width="35" height="35" fill="#381F31"/>
<rect x="35" y="700" width="35" height="35" fill="#C7C7C7"/>
<rect x="70" y="700" width="35" height="35" fill="white"/>
<rect x="105" y="700" width="35" height="35" fill="white"/>
<rect x="140" y="700" width="35" height="35" fill="white"/>
<rect x="175" y="700" width="35" height="35" fill="#C7C7C7"/>
<rect x="210" y="700" width="35" height="35" fill="white"/>
<rect x="245" y="700" width="35" height="35" fill="white"/>
<rect x="280" y="700" width="35" height="35" fill="#381F31"/>
<rect x="315" y="700" width="35" height="35" fill="#381F31"/>
<rect x="805" y="700" width="35" height="35" fill="white"/>
<rect x="840" y="700" width="35" height="35" fill="white"/>
<rect x="875" y="700" width="35" height="35" fill="white"/>
<rect x="910" y="700" width="35" height="35" fill="white"/>
<rect x="945" y="700" width="35" height="35" fill="#381F31"/>
<rect y="735" width="35" height="35" fill="#381F31"/>
<rect x="35" y="735" width="35" height="35" fill="#C7C7C7"/>
<rect x="70" y="735" width="35" height="35" fill="white"/>
<rect x="105" y="735" width="35" height="35" fill="white"/>
<rect x="140" y="735" width="35" height="35" fill="white"/>
<rect x="175" y="735" width="35" height="35" fill="white"/>
<rect x="210" y="735" width="35" height="35" fill="#C7C7C7"/>
<rect x="245" y="735" width="35" height="35" fill="white"/>
<rect x="280" y="735" width="35" height="35" fill="white"/>
<rect x="315" y="735" width="35" height="35" fill="white"/>
<rect x="350" y="735" width="35" height="35" fill="#381F31"/>
<rect x="805" y="735" width="35" height="35" fill="white"/>
<rect x="840" y="735" width="35" height="35" fill="white"/>
<rect x="875" y="735" width="35" height="35" fill="white"/>
<rect x="910" y="735" width="35" height="35" fill="#C7C7C7"/>
<rect x="945" y="735" width="35" height="35" fill="#381F31"/>
<rect y="770" width="35" height="35" fill="#381F31"/>
<rect x="35" y="770" width="35" height="35" fill="#C7C7C7"/>
<rect x="70" y="770" width="35" height="35" fill="white"/>
<rect x="105" y="770" width="35" height="35" fill="white"/>
<rect x="140" y="770" width="35" height="35" fill="white"/>
<rect x="175" y="770" width="35" height="35" fill="white"/>
<rect x="210" y="770" width="35" height="35" fill="white"/>
<rect x="245" y="770" width="35" height="35" fill="#C7C7C7"/>
<rect x="280" y="770" width="35" height="35" fill="#C7C7C7"/>
<rect x="315" y="770" width="35" height="35" fill="white"/>
<rect x="350" y="770" width="35" height="35" fill="white"/>
<rect x="385" y="770" width="35" height="35" fill="#381F31"/>
<rect x="805" y="770" width="35" height="35" fill="white"/>
<rect x="840" y="770" width="35" height="35" fill="white"/>
<rect x="875" y="770" width="35" height="35" fill="#C7C7C7"/>
<rect x="910" y="770" width="35" height="35" fill="#381F31"/>
<rect x="35" y="805" width="35" height="35" fill="#381F31"/>
<rect x="70" y="805" width="35" height="35" fill="#C7C7C7"/>
<rect x="105" y="805" width="35" height="35" fill="white"/>
<rect x="140" y="805" width="35" height="35" fill="white"/>
<rect x="175" y="805" width="35" height="35" fill="white"/>
<rect x="210" y="805" width="35" height="35" fill="white"/>
<rect x="245" y="805" width="35" height="35" fill="white"/>
<rect x="280" y="805" width="35" height="35" fill="white"/>
<rect x="315" y="805" width="35" height="35" fill="#C7C7C7"/>
<rect x="350" y="805" width="35" height="35" fill="#C7C7C7"/>
<rect x="385" y="805" width="35" height="35" fill="white"/>
<rect x="420" y="805" width="35" height="35" fill="#381F31"/>
<rect x="805" y="805" width="35" height="35" fill="white"/>
<rect x="840" y="805" width="35" height="35" fill="#C7C7C7"/>
<rect x="875" y="805" width="35" height="35" fill="white"/>
<rect x="910" y="805" width="35" height="35" fill="white"/>
<rect x="945" y="805" width="35" height="35" fill="#381F31"/>
<rect y="840" width="35" height="35" fill="#381F31"/>
<rect x="35" y="840" width="35" height="35" fill="#C7C7C7"/>
<rect x="70" y="840" width="35" height="35" fill="white"/>
<rect x="105" y="840" width="35" height="35" fill="#C7C7C7"/>
<rect x="140" y="840" width="35" height="35" fill="white"/>
<rect x="175" y="840" width="35" height="35" fill="white"/>
<rect x="210" y="840" width="35" height="35" fill="white"/>
<rect x="245" y="840" width="35" height="35" fill="white"/>
<rect x="280" y="840" width="35" height="35" fill="white"/>
<rect x="315" y="840" width="35" height="35" fill="white"/>
<rect x="350" y="840" width="35" height="35" fill="#C7C7C7"/>
<rect x="385" y="840" width="35" height="35" fill="#C7C7C7"/>
<rect x="420" y="840" width="35" height="35" fill="#381F31"/>
<rect x="805" y="840" width="35" height="35" fill="white"/>
<rect x="840" y="840" width="35" height="35" fill="white"/>
<rect x="875" y="840" width="35" height="35" fill="white"/>
<rect x="910" y="840" width="35" height="35" fill="white"/>
<rect x="945" y="840" width="35" height="35" fill="#381F31"/>
<rect y="875" width="35" height="35" fill="#381F31"/>
<rect x="35" y="875" width="35" height="35" fill="#C7C7C7"/>
<rect x="70" y="875" width="35" height="35" fill="white"/>
<rect x="105" y="875" width="35" height="35" fill="white"/>
<rect x="140" y="875" width="35" height="35" fill="#C7C7C7"/>
<rect x="175" y="875" width="35" height="35" fill="white"/>
<rect x="210" y="875" width="35" height="35" fill="white"/>
<rect x="245" y="875" width="35" height="35" fill="white"/>
<rect x="280" y="875" width="35" height="35" fill="white"/>
<rect x="315" y="875" width="35" height="35" fill="white"/>
<rect x="350" y="875" width="35" height="35" fill="#C7C7C7"/>
<rect x="385" y="875" width="35" height="35" fill="#C7C7C7"/>
<rect x="420" y="875" width="35" height="35" fill="#C7C7C7"/>
<rect x="770" y="875" width="35" height="35" fill="white"/>
<rect x="805" y="875" width="35" height="35" fill="white"/>
<rect x="840" y="875" width="35" height="35" fill="white"/>
<rect x="875" y="875" width="35" height="35" fill="white"/>
<rect x="910" y="875" width="35" height="35" fill="white"/>
<rect x="945" y="875" width="35" height="35" fill="#381F31"/>
<rect y="910" width="35" height="35" fill="#381F31"/>
<rect x="35" y="910" width="35" height="35" fill="#C7C7C7"/>
<rect x="70" y="910" width="35" height="35" fill="white"/>
<rect x="105" y="910" width="35" height="35" fill="white"/>
<rect x="140" y="910" width="35" height="35" fill="white"/>
<rect x="175" y="910" width="35" height="35" fill="white"/>
<rect x="210" y="910" width="35" height="35" fill="white"/>
<rect x="245" y="910" width="35" height="35" fill="white"/>
<rect x="280" y="910" width="35" height="35" fill="white"/>
<rect x="315" y="910" width="35" height="35" fill="white"/>
<rect x="350" y="910" width="35" height="35" fill="white"/>
<rect x="385" y="910" width="35" height="35" fill="#C7C7C7"/>
<rect x="420" y="910" width="35" height="35" fill="#C7C7C7"/>
<rect x="735" y="910" width="35" height="35" fill="#C7C7C7"/>
<rect x="770" y="910" width="35" height="35" fill="white"/>
<rect x="805" y="910" width="35" height="35" fill="white"/>
<rect x="840" y="910" width="35" height="35" fill="white"/>
<rect x="875" y="910" width="35" height="35" fill="white"/>
<rect x="910" y="910" width="35" height="35" fill="#C7C7C7"/>
<rect x="945" y="910" width="35" height="35" fill="#381F31"/>
<rect x="35" y="945" width="35" height="35" fill="#381F31"/>
<rect x="70" y="945" width="35" height="35" fill="#C7C7C7"/>
<rect x="105" y="945" width="35" height="35" fill="white"/>
<rect x="140" y="945" width="35" height="35" fill="white"/>
<rect x="175" y="945" width="35" height="35" fill="white"/>
<rect x="210" y="945" width="35" height="35" fill="white"/>
<rect x="245" y="945" width="35" height="35" fill="#C7C7C7"/>
<rect x="280" y="945" width="35" height="35" fill="#C7C7C7"/>
<rect x="315" y="945" width="35" height="35" fill="#C7C7C7"/>
<rect x="350" y="945" width="35" height="35" fill="white"/>
<rect x="385" y="945" width="35" height="35" fill="#C7C7C7"/>
<rect x="420" y="945" width="35" height="35" fill="#C7C7C7"/>
<rect x="700" y="945" width="35" height="35" fill="#C7C7C7"/>
<rect x="735" y="945" width="35" height="35" fill="white"/>
<rect x="770" y="945" width="35" height="35" fill="#C7C7C7"/>
<rect x="805" y="945" width="35" height="35" fill="#C7C7C7"/>
<rect x="840" y="945" width="35" height="35" fill="white"/>
<rect x="875" y="945" width="35" height="35" fill="#C7C7C7"/>
<rect x="910" y="945" width="35" height="35" fill="#381F31"/>
<rect x="35" y="980" width="35" height="35" fill="#381F31"/>
<rect x="70" y="980" width="35" height="35" fill="#C7C7C7"/>
<rect x="105" y="980" width="35" height="35" fill="white"/>
<rect x="140" y="980" width="35" height="35" fill="white"/>
<rect x="175" y="980" width="35" height="35" fill="white"/>
<rect x="210" y="980" width="35" height="35" fill="#C7C7C7"/>
<rect x="245" y="980" width="35" height="35" fill="white"/>
<rect x="280" y="980" width="35" height="35" fill="white"/>
<rect x="315" y="980" width="35" height="35" fill="#C7C7C7"/>
<rect x="350" y="980" width="35" height="35" fill="#C7C7C7"/>
<rect x="385" y="980" width="35" height="35" fill="white"/>
<rect x="420" y="980" width="35" height="35" fill="#C7C7C7"/>
<rect x="595" y="980" width="35" height="35" fill="#C7C7C7"/>
<rect x="630" y="980" width="35" height="35" fill="#C7C7C7"/>
<rect x="665" y="980" width="35" height="35" fill="#C7C7C7"/>
<rect x="700" y="980" width="35" height="35" fill="#C7C7C7"/>
<rect x="735" y="980" width="35" height="35" fill="white"/>
<rect x="770" y="980" width="35" height="35" fill="white"/>
<rect x="805" y="980" width="35" height="35" fill="white"/>
<rect x="840" y="980" width="35" height="35" fill="#C7C7C7"/>
<rect x="875" y="980" width="35" height="35" fill="#381F31"/>
<rect x="70" y="1015" width="35" height="35" fill="#381F31"/>
<rect x="105" y="1015" width="35" height="35" fill="#C7C7C7"/>
<rect x="140" y="1015" width="35" height="35" fill="white"/>
<rect x="175" y="1015" width="35" height="35" fill="#C7C7C7"/>
<rect x="210" y="1015" width="35" height="35" fill="white"/>
<rect x="245" y="1015" width="35" height="35" fill="white"/>
<rect x="280" y="1015" width="35" height="35" fill="white"/>
<rect x="315" y="1015" width="35" height="35" fill="white"/>
<rect x="350" y="1015" width="35" height="35" fill="#C7C7C7"/>
<rect x="385" y="1015" width="35" height="35" fill="#C7C7C7"/>
<rect x="630" y="1015" width="35" height="35" fill="#C7C7C7"/>
<rect x="665" y="1015" width="35" height="35" fill="#C7C7C7"/>
<rect x="700" y="1015" width="35" height="35" fill="#C7C7C7"/>
<rect x="735" y="1015" width="35" height="35" fill="#C7C7C7"/>
<rect x="770" y="1015" width="35" height="35" fill="#C7C7C7"/>
<rect x="805" y="1015" width="35" height="35" fill="white"/>
<rect x="840" y="1015" width="35" height="35" fill="#C7C7C7"/>
<rect x="875" y="1015" width="35" height="35" fill="#381F31"/>
<rect x="105" y="1050" width="35" height="35" fill="#381F31"/>
<rect x="140" y="1050" width="35" height="35" fill="#C7C7C7"/>
<rect x="175" y="1050" width="35" height="35" fill="#C7C7C7"/>
<rect x="210" y="1050" width="35" height="35" fill="white"/>
<rect x="245" y="1050" width="35" height="35" fill="#C7C7C7"/>
<rect x="280" y="1050" width="35" height="35" fill="#C7C7C7"/>
<rect x="315" y="1050" width="35" height="35" fill="white"/>
<rect x="350" y="1050" width="35" height="35" fill="#C7C7C7"/>
<rect x="665" y="1050" width="35" height="35" fill="#C7C7C7"/>
<rect x="700" y="1050" width="35" height="35" fill="#C7C7C7"/>
<rect x="735" y="1050" width="35" height="35" fill="white"/>
<rect x="770" y="1050" width="35" height="35" fill="#C7C7C7"/>
<rect x="805" y="1050" width="35" height="35" fill="white"/>
<rect x="840" y="1050" width="35" height="35" fill="#C7C7C7"/>
<rect x="875" y="1050" width="35" height="35" fill="#381F31"/>
<rect x="140" y="1085" width="35" height="35" fill="#381F31"/>
<rect x="175" y="1085" width="35" height="35" fill="#C7C7C7"/>
<rect x="210" y="1085" width="35" height="35" fill="white"/>
<rect x="245" y="1085" width="35" height="35" fill="#C7C7C7"/>
<rect x="280" y="1085" width="35" height="35" fill="white"/>
<rect x="315" y="1085" width="35" height="35" fill="white"/>
<rect x="700" y="1085" width="35" height="35" fill="white"/>
<rect x="735" y="1085" width="35" height="35" fill="white"/>
<rect x="770" y="1085" width="35" height="35" fill="#C7C7C7"/>
<rect x="805" y="1085" width="35" height="35" fill="#C7C7C7"/>
<rect x="840" y="1085" width="35" height="35" fill="#381F31"/>
</svg>
